<?xml version="1.0" encoding="iso-8859-1"?>
<!-- Generator: Adobe Illustrator 19.0.0, SVG Export Plug-In . SVG Version: 6.00 Build 0)  -->
<svg version="1.1" id="Capa_1" xmlns="http://www.w3.org/2000/svg" xmlns:xlink="http://www.w3.org/1999/xlink" x="0px" y="0px"
	 viewBox="0 0 512 512" style="enable-background:new 0 0 512 512;" xml:space="preserve">
<path style="fill:#CED6E0;" d="M297.6,436.286c3.2-6.4,4.267-12.8,4.267-19.2v-121.6c0-24.533-20.267-44.8-44.8-44.8H160
	c-24.533,0-44.8,20.267-44.8,44.8v120.533c0,7.467,1.067,13.867,4.267,19.2H297.6V436.286z"/>
<g>
	<polygon style="fill:#F3705A;" points="240,436.286 224,297.619 193.067,297.619 178.133,436.286 	"/>
	<polygon style="fill:#F3705A;" points="224,298.105 240,281.619 209.067,250.686 177.067,281.619 193.067,298.105 	"/>
</g>
<path style="fill:#344A5E;" d="M417.067,436.286L384,293.352c-3.2-14.933-14.933-25.6-29.867-28.8l-77.866-14.933l-37.333,186.667
	H417.067z"/>
<path style="fill:#F3F3F3;" d="M256,218.686c0,0,0,5.333-21.333,17.067s-25.6,14.933-25.6,14.933l44.8,43.733
	c0,0,17.067-43.733,17.067-44.8C269.867,249.619,258.133,227.219,256,218.686z"/>
<path style="fill:#415A6B;" d="M257.067,436.286c6.4-17.067,12.8-30.933,14.933-39.467c10.667-29.867,35.2-106.667,35.2-106.667
	l-22.4-12.8l14.933-5.333c0,0-12.8-19.2-23.467-25.6c-10.666-6.4-10.666-14.933-17.066-19.2c0,0-1.067,21.333-3.2,34.133
	c-2.133,12.8-17.067,96-21.333,121.6c-1.067,8.533-4.267,28.8-7.467,53.333h29.867V436.286z"/>
<path style="fill:#344A5E;" d="M178.133,436.286L140.8,249.619l-77.867,14.933c-14.933,3.2-26.667,13.867-29.867,28.8L0,436.286
	H178.133z"/>
<path style="fill:#F3F3F3;" d="M161.067,218.686c0,0,0,5.333,21.333,17.067s25.6,14.933,25.6,14.933l-44.8,43.733
	c0,0-17.067-43.733-17.067-44.8C147.2,249.619,158.933,227.219,161.067,218.686z"/>
<path style="fill:#415A6B;" d="M144,396.819c3.2,7.467,8.533,22.4,14.933,39.467H188.8c-3.2-24.533-5.333-44.8-7.467-53.333
	c-4.267-25.6-19.2-108.8-21.333-121.6c-2.133-12.8-3.2-34.133-3.2-34.133c-6.4,4.267-6.4,12.8-17.067,19.2
	c-10.667,6.4-23.466,25.599-23.466,25.599l14.933,5.333l-23.467,11.733C108.8,289.086,133.333,366.952,144,396.819z"/>
<path style="fill:#F7B64C;" d="M161.067,149.352v70.4c0,0,0,5.333,21.333,17.067s25.6,14.933,25.6,14.933s4.267-3.2,25.6-14.933
	s21.333-17.067,21.333-17.067v-70.4H161.067z"/>
<g>
	<path style="fill:#FFD15C;" d="M261.333,80.019c0-6.4-2.133-13.867-6.4-19.2c-4.267-5.333-8.533-8.533-14.933-10.667
		c-5.333-2.133-11.733-2.133-17.067-2.133c-10.667-1.067-21.333-1.067-32,2.133c0,0,0,0-1.067,0
		c-7.467-3.2-14.933-5.333-23.467-5.333s-17.067,4.267-21.333,12.8c-3.2,6.4-4.267,14.933-4.267,22.4
		c3.2,5.333,4.267,12.8,8.533,19.2c-4.267,11.733-7.467,24.533-7.467,39.467c0,48,30.933,87.467,68.267,87.467
		s68.267-39.467,68.267-87.467C278.4,116.286,272,96.019,261.333,80.019z"/>
	
		<ellipse transform="matrix(-0.9894 -0.1455 0.1455 -0.9894 525.3873 313.7193)" style="fill:#FFD15C;" cx="274.166" cy="137.647" rx="11.734" ry="24.535"/>
	
		<ellipse transform="matrix(0.9894 -0.1455 0.1455 0.9894 -18.549 22.048)" style="fill:#FFD15C;" cx="141.458" cy="137.835" rx="11.734" ry="24.535"/>
</g>
<path style="fill:#415A6B;" d="M146.133,154.686l3.2-1.067c0,0-6.4-13.867,0-30.933c6.4-18.133,6.4-23.467,5.333-33.067
	s-3.2-27.733,16-30.933s60.8-2.133,74.667,0s19.2,20.267,17.067,27.733c-2.133,7.467,2.133,23.467,3.2,33.067
	c1.067,9.6-1.067,32-1.067,32l3.2-1.067c0,0,0-16,4.267-25.6s6.4-19.2,6.4-41.6c0-27.733-7.467-34.133-7.467-34.133
	s10.667-29.867-25.6-42.667s-53.333-3.2-73.6,6.4S137.6,43.752,132.267,55.486c-5.333,11.733,2.133,64,6.4,71.467
	C141.867,132.286,146.133,154.686,146.133,154.686z"/>
<path style="fill:#66C6B9;" d="M496,290.152c9.6,1.067,16,8.533,16,18.133v48c0,36.267-12.8,70.4-33.067,98.133
	c-20.267,26.667-48,45.867-81.067,56.533c-3.2,1.067-7.467,1.067-10.667,0c-68.267-20.267-114.133-83.2-114.133-154.667v-48
	c0-9.6,6.4-17.067,16-18.133c42.667-5.333,69.333-22.4,90.667-46.933c7.467-7.467,19.2-7.467,26.667,0
	C426.667,267.752,453.333,284.819,496,290.152z"/>
<path style="fill:#FFFFFF;" d="M392.533,478.952c-52.267-18.133-87.467-66.133-87.467-122.667v-36.266
	c34.133-6.4,62.933-20.267,87.467-43.733c24.534,23.466,53.334,37.333,87.467,43.733v36.267c0,28.8-9.6,55.467-26.667,78.933
	C437.333,455.486,417.067,470.419,392.533,478.952z"/>
<path style="fill:#F3705A;" d="M379.733,425.619c-4.267,0-8.533-1.067-11.733-4.267l-30.933-30.933c-6.4-6.4-6.4-16,0-22.4
	s16-6.4,22.4,0l20.267,20.267l44.8-44.8c6.4-6.4,16-6.4,22.4,0s6.4,16,0,22.4l-55.467,55.467
	C388.267,424.552,384,425.619,379.733,425.619z"/>
<g>
</g>
<g>
</g>
<g>
</g>
<g>
</g>
<g>
</g>
<g>
</g>
<g>
</g>
<g>
</g>
<g>
</g>
<g>
</g>
<g>
</g>
<g>
</g>
<g>
</g>
<g>
</g>
<g>
</g>
</svg>
